<svg width="512" height="512" viewBox="0 0 512 512" fill="none" xmlns="http://www.w3.org/2000/svg" xmlns:xlink="http://www.w3.org/1999/xlink"><rect id="_r_8_" width="512" height="512" x="0" y="0" rx="128" fill="url(#_r_9_)" stroke="#FFFFFF" stroke-width="0" stroke-opacity="100%" paint-order="stroke"></rect><clipPath id="clip"><use xlink:href="#_r_8_"></use></clipPath><defs><linearGradient id="_r_9_" gradientUnits="userSpaceOnUse" gradientTransform="rotate(45)" style="transform-origin: center center 0px;"><stop stop-color="#00B4DB"></stop><stop offset="1" stop-color="#003357"></stop></linearGradient><radialGradient id="_r_a_" cx="0" cy="0" r="1" gradientUnits="userSpaceOnUse" gradientTransform="translate(256) rotate(90) scale(512)"><stop stop-color="white"></stop><stop offset="1" stop-color="white" stop-opacity="0"></stop></radialGradient></defs><svg xmlns="http://www.w3.org/2000/svg" viewBox="0 0 256 256" width="480" height="480" fill="none" x="16" y="36" style="color: rgb(255, 255, 255);" alignment-baseline="middle">
    
    <path d="M48 40C48 31.2 55.2 24 64 24H168C185.7 24 200 38.3 200 56V184C200 192.8 192.8 200 184 200H64C55.2 200 48 192.8 48 184V40Z" fill="#4F46E5"></path>

    
    <rect x="48" y="24" width="18" height="176" fill="#3730A3"></rect>

    
    <line x1="78" y1="70" x2="170" y2="70" stroke="#FFFFFF" stroke-width="6" stroke-linecap="round" opacity="0.9"></line>
    <line x1="78" y1="98" x2="170" y2="98" stroke="#FFFFFF" stroke-width="6" stroke-linecap="round" opacity="0.9"></line>
    <line x1="78" y1="126" x2="150" y2="126" stroke="#FFFFFF" stroke-width="6" stroke-linecap="round" opacity="0.9"></line>

    
    <circle cx="190" cy="190" r="38" fill="#22C55E" stroke="#FFFFFF" stroke-width="6"></circle>

    
    <text x="190" y="203" text-anchor="middle" font-size="44" font-family="Arial, Helvetica, sans-serif" font-weight="700" fill="#FFFFFF">
        $
    </text>
</svg></svg>